<?xml version="1.0" encoding="UTF-8" standalone="no"?>
<svg
   xmlns:dc="http://purl.org/dc/elements/1.1/"
   xmlns:cc="http://creativecommons.org/ns#"
   xmlns:rdf="http://www.w3.org/1999/02/22-rdf-syntax-ns#"
   xmlns:svg="http://www.w3.org/2000/svg"
   xmlns="http://www.w3.org/2000/svg"
   viewBox="0 0 793.70135 1122.52"
   height="1122.52"
   width="793.70135"
   xml:space="preserve"
   id="svg2"
   version="1.1"><metadata
     id="metadata8"><rdf:RDF><cc:Work
         rdf:about=""><dc:format>image/svg+xml</dc:format><dc:type
           rdf:resource="http://purl.org/dc/dcmitype/StillImage" /></cc:Work></rdf:RDF></metadata><defs
     id="defs6"><clipPath
       id="clipPath18"
       clipPathUnits="userSpaceOnUse"><path
         id="path16"
         d="M 0,841.89 H 595.276 V 0 H 0 Z" /></clipPath><linearGradient
       id="linearGradient36"
       spreadMethod="pad"
       gradientTransform="matrix(-1.53e-5,-243.96436,243.96436,-1.53e-5,298.50146,541.37207)"
       gradientUnits="userSpaceOnUse"
       y2="0"
       x2="1"
       y1="0"
       x1="0"><stop
         id="stop32"
         offset="0"
         style="stop-opacity:1;stop-color:#61fd7d" /><stop
         id="stop34"
         offset="1"
         style="stop-opacity:1;stop-color:#2bb826" /></linearGradient></defs><g
     transform="matrix(1.3333333,0,0,-1.3333333,0,1122.52)"
     id="g10"><g
       id="g12"><g
         clip-path="url(#clipPath18)"
         id="g14"><g
           id="g20"><g
             id="g22"><g
               id="g28"><g
                 id="g30"><path
                   id="path38"
                   style="fill:url(#linearGradient36);stroke:none"
                   d="m 420.464,359.317 c 0,-1.336 -0.041,-4.232 -0.121,-6.47 -0.197,-5.475 -0.63,-12.54 -1.286,-15.76 -0.988,-4.837 -2.477,-9.403 -4.418,-13.204 -2.297,-4.496 -5.228,-8.523 -8.71,-11.998 -3.474,-3.469 -7.497,-6.388 -11.987,-8.676 -3.82,-1.947 -8.415,-3.437 -13.28,-4.419 -3.187,-0.644 -10.199,-1.069 -15.64,-1.263 -2.24,-0.08 -5.137,-0.12 -6.467,-0.12 l -120.126,0.019 c -1.336,0 -4.232,0.041 -6.47,0.121 -5.475,0.197 -12.541,0.631 -15.76,1.287 -4.837,0.986 -9.404,2.476 -13.204,4.417 -4.496,2.298 -8.523,5.228 -11.998,8.71 -3.469,3.475 -6.388,7.498 -8.676,11.987 -1.947,3.821 -3.437,8.415 -4.42,13.281 -0.643,3.186 -1.068,10.199 -1.262,15.639 -0.08,2.239 -0.12,5.137 -0.12,6.468 l 0.019,120.125 c 0,1.336 0.041,4.233 0.121,6.471 0.196,5.475 0.631,12.54 1.287,15.759 0.986,4.838 2.475,9.404 4.417,13.205 2.298,4.496 5.228,8.522 8.71,11.998 3.474,3.469 7.498,6.388 11.987,8.676 3.82,1.947 8.415,3.437 13.28,4.419 3.187,0.643 10.2,1.069 15.64,1.262 2.24,0.08 5.138,0.121 6.468,0.121 l 120.125,-0.02 c 1.336,0 4.233,-0.04 6.47,-0.121 5.476,-0.196 12.541,-0.63 15.761,-1.287 4.837,-0.986 9.403,-2.475 13.204,-4.417 4.495,-2.297 8.522,-5.228 11.998,-8.71 3.469,-3.474 6.388,-7.497 8.676,-11.986 1.947,-3.821 3.436,-8.415 4.419,-13.281 0.643,-3.187 1.069,-10.199 1.262,-15.64 0.08,-2.24 0.12,-5.137 0.12,-6.468 z" /></g></g></g></g><path
           id="path40"
           style="fill:#ffffff;fill-opacity:1;fill-rule:nonzero;stroke:none"
           d="m 341.136,403.539 c -2.187,1.094 -12.934,6.38 -14.937,7.109 -2.004,0.73 -3.461,1.094 -4.919,-1.093 -1.457,-2.188 -5.645,-7.11 -6.922,-8.569 -1.274,-1.458 -2.549,-1.64 -4.735,-0.547 -2.186,1.094 -9.229,3.402 -17.579,10.846 -6.498,5.794 -10.885,12.951 -12.16,15.139 -1.275,2.188 -0.135,3.37 0.959,4.46 0.983,0.978 2.185,2.552 3.279,3.828 1.092,1.276 1.457,2.188 2.186,3.646 0.728,1.458 0.364,2.735 -0.183,3.828 -0.546,1.094 -4.918,11.85 -6.74,16.225 -1.774,4.261 -3.576,3.685 -4.918,3.752 -1.274,0.063 -2.732,0.077 -4.189,0.077 -1.457,0 -3.826,-0.548 -5.829,-2.735 -2.004,-2.188 -7.651,-7.475 -7.651,-18.23 0,-10.756 7.833,-21.147 8.926,-22.605 1.093,-1.459 15.414,-23.531 37.341,-32.996 5.215,-2.252 9.288,-3.597 12.462,-4.604 5.237,-1.663 10.001,-1.428 13.768,-0.866 4.2,0.628 12.933,5.287 14.755,10.392 1.821,5.104 1.821,9.479 1.275,10.39 -0.547,0.911 -2.004,1.458 -4.189,2.553 m -39.885,-54.441 h -0.029 c -13.048,0.006 -25.846,3.509 -37.009,10.132 l -2.656,1.576 -27.52,-7.217 7.346,26.823 -1.73,2.75 c -7.278,11.573 -11.122,24.95 -11.116,38.685 0.015,40.078 32.634,72.685 72.742,72.685 19.421,-0.008 37.678,-7.579 51.407,-21.318 13.728,-13.739 21.285,-32.003 21.277,-51.425 -0.016,-40.082 -32.635,-72.691 -72.712,-72.691 m 61.884,134.556 c -16.517,16.531 -38.482,25.639 -61.885,25.649 -48.22,0 -87.464,-39.23 -87.484,-87.45 -0.006,-15.415 4.022,-30.46 11.678,-43.722 l -12.411,-45.319 46.376,12.161 c 12.778,-6.967 27.164,-10.639 41.806,-10.645 h 0.036 c 0.003,0 -0.003,0 0,0 48.215,0 87.464,39.235 87.483,87.455 0.009,23.368 -9.082,45.341 -25.599,61.871" /></g></g></g></svg>